<?xml version="1.0" encoding="UTF-8" standalone="no"?>
<!DOCTYPE svg PUBLIC "-//W3C//DTD SVG 1.1//EN" "http://www.w3.org/Graphics/SVG/1.1/DTD/svg11.dtd">
<!-- 由 Microsoft Visio, SVG Export 生成 Java内存模型简易.svg Page-1 -->
<svg xmlns="http://www.w3.org/2000/svg" xmlns:xlink="http://www.w3.org/1999/xlink" xmlns:ev="http://www.w3.org/2001/xml-events"
		xmlns:v="http://schemas.microsoft.com/visio/2003/SVGExtensions/" width="11.6929in" height="8.26772in"
		viewBox="0 0 841.89 595.276" xml:space="preserve" color-interpolation-filters="sRGB" class="st9">
	<v:documentProperties v:langID="2052" v:metric="true" v:viewMarkup="false">
		<v:userDefs>
			<v:ud v:nameU="msvSubprocessMaster" v:prompt="" v:val="VT4(Rectangle)"/>
			<v:ud v:nameU="msvNoAutoConnect" v:val="VT0(1):26"/>
		</v:userDefs>
	</v:documentProperties>

	<style type="text/css">
	<![CDATA[
		.st1 {fill:url(#grad0-4);stroke:#4f87bb;stroke-width:0.75}
		.st2 {fill:#4f87bb;font-family:微软雅黑;font-size:1.00001em;font-weight:bold}
		.st3 {visibility:visible}
		.st4 {fill:#5b9bd5;fill-opacity:0.25;filter:url(#filter_2);stroke:#5b9bd5;stroke-opacity:0.25}
		.st5 {fill:#4f87bb;stroke:#40709c;stroke-width:0.75}
		.st6 {fill:#bfbfbf;stroke:#4f87bb;stroke-width:0.75}
		.st7 {fill:#4f87bb;font-family:Calibri;font-size:0.833336em}
		.st8 {font-family:黑体;font-size:1em}
		.st9 {fill:none;fill-rule:evenodd;font-size:12px;overflow:visible;stroke-linecap:square;stroke-miterlimit:3}
	]]>
	</style>

	<defs id="Patterns_And_Gradients">
		<linearGradient id="grad0-4" x1="0" y1="0" x2="1" y2="0" gradientTransform="rotate(60 0.5 0.5)">
			<stop offset="0" stop-color="#e9eff7" stop-opacity="1"/>
			<stop offset="0.24" stop-color="#f4f7fb" stop-opacity="1"/>
			<stop offset="0.54" stop-color="#feffff" stop-opacity="1"/>
		</linearGradient>
	</defs>
	<defs id="Filters">
		<filter id="filter_2">
			<feGaussianBlur stdDeviation="2"/>
		</filter>
	</defs>
	<g v:mID="0" v:index="1" v:groupContext="foregroundPage">
		<v:userDefs>
			<v:ud v:nameU="msvThemeOrder" v:val="VT0(0):26"/>
		</v:userDefs>
		<title>页-1</title>
		<v:pageProperties v:drawingScale="0.0393701" v:pageScale="0.0393701" v:drawingUnits="24" v:shadowOffsetX="8.50394"
				v:shadowOffsetY="-8.50394"/>
		<g id="shape1-1" v:mID="1" v:groupContext="shape" transform="translate(99.2126,-419.882)">
			<title>矩形</title>
			<desc>Java线程</desc>
			<v:userDefs>
				<v:ud v:nameU="visVersion" v:val="VT0(15):26"/>
			</v:userDefs>
			<v:textBlock v:margins="rect(4,4,4,4)" v:tabSpace="42.5197"/>
			<v:textRect cx="92.126" cy="552.756" width="184.26" height="85.0394"/>
			<rect x="0" y="510.236" width="184.252" height="85.0394" class="st1"/>
			<text x="66.91" y="556.36" class="st2" v:langID="2052"><v:paragraph v:horizAlign="1"/><v:tabList/>Java线程</text>		</g>
		<g id="shape2-6" v:mID="2" v:groupContext="shape" transform="translate(99.2126,-325.984)">
			<title>矩形.2</title>
			<desc>工作内存</desc>
			<v:userDefs>
				<v:ud v:nameU="visVersion" v:val="VT0(15):26"/>
			</v:userDefs>
			<v:textBlock v:margins="rect(4,4,4,4)" v:tabSpace="42.5197"/>
			<v:textRect cx="92.126" cy="568.996" width="184.26" height="52.5591"/>
			<rect x="0" y="542.717" width="184.252" height="52.5591" class="st1"/>
			<text x="68.13" y="572.6" class="st2" v:langID="2052"><v:paragraph v:horizAlign="1"/><v:tabList/>工作内存</text>		</g>
		<g id="shape3-10" v:mID="3" v:groupContext="shape" transform="translate(-439.37,216.732) rotate(-90)">
			<title>普通箭头</title>
			<v:userDefs>
				<v:ud v:nameU="visVersion" v:val="VT0(15):26"/>
				<v:ud v:nameU="ArrowType" v:prompt="" v:val="VT0(2):26"/>
			</v:userDefs>
			<g id="shadow3-11" v:groupContext="shadow" v:shadowOffsetX="0.345598" v:shadowOffsetY="-1.97279" v:shadowType="1"
					transform="matrix(1,0,0,1,-1.97279,0.345598)" class="st3">
				<path d="M0 595.28 L11.34 583.94 L11.34 589.61 L41.34 589.61 L41.34 595.28 L41.34 600.94 L11.34 600.94 L11.34 606.61
							 L0 595.28 Z" class="st4"/>
			</g>
			<path d="M0 595.28 L11.34 583.94 L11.34 589.61 L41.34 589.61 L41.34 595.28 L41.34 600.94 L11.34 600.94 L11.34 606.61
						 L0 595.28 Z" class="st5"/>
		</g>
		<g id="shape4-15" v:mID="4" v:groupContext="shape" transform="translate(-368.504,175.394) rotate(-90) scale(-1,1)">
			<title>普通箭头.4</title>
			<v:userDefs>
				<v:ud v:nameU="visVersion" v:val="VT0(15):26"/>
				<v:ud v:nameU="ArrowType" v:prompt="" v:val="VT0(2):26"/>
			</v:userDefs>
			<g id="shadow4-16" v:groupContext="shadow" v:shadowOffsetX="0.345598" v:shadowOffsetY="-1.97279" v:shadowType="1"
					transform="matrix(1,0,0,1,1.97279,0.345598)" class="st3">
				<path d="M0 595.28 L11.34 583.94 L11.34 589.61 L41.34 589.61 L41.34 595.28 L41.34 600.94 L11.34 600.94 L11.34 606.61
							 L0 595.28 Z" class="st4"/>
			</g>
			<path d="M0 595.28 L11.34 583.94 L11.34 589.61 L41.34 589.61 L41.34 595.28 L41.34 600.94 L11.34 600.94 L11.34 606.61
						 L0 595.28 Z" class="st5"/>
		</g>
		<g id="shape5-20" v:mID="5" v:groupContext="shape" transform="translate(31.748,-184.252)">
			<title>矩形.5</title>
			<desc>RAM主存</desc>
			<v:userDefs>
				<v:ud v:nameU="visVersion" v:val="VT0(15):26"/>
			</v:userDefs>
			<v:textBlock v:margins="rect(4,4,4,4)" v:tabSpace="42.5197"/>
			<v:textRect cx="329.244" cy="552.756" width="658.49" height="85.0394"/>
			<rect x="0" y="510.236" width="658.488" height="85.0394" class="st6"/>
			<text x="309.36" y="556.08" class="st7" v:langID="2052"><v:paragraph v:horizAlign="1"/><v:tabList/>RAM<tspan
						class="st8">主存</tspan></text>		</g>
		<g id="shape7-24" v:mID="7" v:groupContext="shape" transform="translate(751.181,269.291) rotate(90)">
			<title>普通箭头.7</title>
			<v:userDefs>
				<v:ud v:nameU="visVersion" v:val="VT0(15):26"/>
				<v:ud v:nameU="ArrowType" v:prompt="" v:val="VT0(2):26"/>
			</v:userDefs>
			<g id="shadow7-25" v:groupContext="shadow" v:shadowOffsetX="0.345598" v:shadowOffsetY="-1.97279" v:shadowType="1"
					transform="matrix(1,0,0,1,1.97279,-0.345598)" class="st3">
				<path d="M0 595.28 L11.34 583.94 L11.34 589.61 L47.42 589.61 L47.42 595.28 L47.42 600.94 L11.34 600.94 L11.34 606.61
							 L0 595.28 Z" class="st4"/>
			</g>
			<path d="M0 595.28 L11.34 583.94 L11.34 589.61 L47.42 589.61 L47.42 595.28 L47.42 600.94 L11.34 600.94 L11.34 606.61
						 L0 595.28 Z" class="st5"/>
		</g>
		<g id="shape8-29" v:mID="8" v:groupContext="shape" transform="translate(822.047,316.713) rotate(90) scale(-1,1)">
			<title>普通箭头.8</title>
			<v:userDefs>
				<v:ud v:nameU="visVersion" v:val="VT0(15):26"/>
				<v:ud v:nameU="ArrowType" v:prompt="" v:val="VT0(2):26"/>
			</v:userDefs>
			<g id="shadow8-30" v:groupContext="shadow" v:shadowOffsetX="0.345598" v:shadowOffsetY="-1.97279" v:shadowType="1"
					transform="matrix(1,0,0,1,-1.97279,-0.345598)" class="st3">
				<path d="M0 595.28 L11.34 583.94 L11.34 589.61 L47.42 589.61 L47.42 595.28 L47.42 600.94 L11.34 600.94 L11.34 606.61
							 L0 595.28 Z" class="st4"/>
			</g>
			<path d="M0 595.28 L11.34 583.94 L11.34 589.61 L47.42 589.61 L47.42 595.28 L47.42 600.94 L11.34 600.94 L11.34 606.61
						 L0 595.28 Z" class="st5"/>
		</g>
		<g id="shape9-34" v:mID="9" v:groupContext="shape" transform="translate(411.024,-424.783)">
			<title>矩形.9</title>
			<desc>Java线程</desc>
			<v:userDefs>
				<v:ud v:nameU="visVersion" v:val="VT0(15):26"/>
			</v:userDefs>
			<v:textBlock v:margins="rect(4,4,4,4)" v:tabSpace="42.5197"/>
			<v:textRect cx="92.126" cy="552.756" width="184.26" height="85.0394"/>
			<rect x="0" y="510.236" width="184.252" height="85.0394" class="st1"/>
			<text x="66.91" y="556.36" class="st2" v:langID="2052"><v:paragraph v:horizAlign="1"/><v:tabList/>Java线程</text>		</g>
		<g id="shape10-38" v:mID="10" v:groupContext="shape" transform="translate(411.024,-330.886)">
			<title>矩形.10</title>
			<desc>工作内存</desc>
			<v:userDefs>
				<v:ud v:nameU="visVersion" v:val="VT0(15):26"/>
			</v:userDefs>
			<v:textBlock v:margins="rect(4,4,4,4)" v:tabSpace="42.5197"/>
			<v:textRect cx="92.126" cy="568.996" width="184.26" height="52.5591"/>
			<rect x="0" y="542.717" width="184.252" height="52.5591" class="st1"/>
			<text x="68.13" y="572.6" class="st2" v:langID="2052"><v:paragraph v:horizAlign="1"/><v:tabList/>工作内存</text>		</g>
		<g id="shape11-42" v:mID="11" v:groupContext="shape" transform="translate(-127.559,211.831) rotate(-90)">
			<title>普通箭头.11</title>
			<v:userDefs>
				<v:ud v:nameU="visVersion" v:val="VT0(15):26"/>
				<v:ud v:nameU="ArrowType" v:prompt="" v:val="VT0(2):26"/>
			</v:userDefs>
			<g id="shadow11-43" v:groupContext="shadow" v:shadowOffsetX="0.345598" v:shadowOffsetY="-1.97279" v:shadowType="1"
					transform="matrix(1,0,0,1,-1.97279,0.345598)" class="st3">
				<path d="M0 595.28 L11.34 583.94 L11.34 589.61 L41.34 589.61 L41.34 595.28 L41.34 600.94 L11.34 600.94 L11.34 606.61
							 L0 595.28 Z" class="st4"/>
			</g>
			<path d="M0 595.28 L11.34 583.94 L11.34 589.61 L41.34 589.61 L41.34 595.28 L41.34 600.94 L11.34 600.94 L11.34 606.61
						 L0 595.28 Z" class="st5"/>
		</g>
		<g id="shape12-47" v:mID="12" v:groupContext="shape" transform="translate(-56.6929,170.492) rotate(-90) scale(-1,1)">
			<title>普通箭头.12</title>
			<v:userDefs>
				<v:ud v:nameU="visVersion" v:val="VT0(15):26"/>
				<v:ud v:nameU="ArrowType" v:prompt="" v:val="VT0(2):26"/>
			</v:userDefs>
			<g id="shadow12-48" v:groupContext="shadow" v:shadowOffsetX="0.345598" v:shadowOffsetY="-1.97279" v:shadowType="1"
					transform="matrix(1,0,0,1,1.97279,0.345598)" class="st3">
				<path d="M0 595.28 L11.34 583.94 L11.34 589.61 L41.34 589.61 L41.34 595.28 L41.34 600.94 L11.34 600.94 L11.34 606.61
							 L0 595.28 Z" class="st4"/>
			</g>
			<path d="M0 595.28 L11.34 583.94 L11.34 589.61 L41.34 589.61 L41.34 595.28 L41.34 600.94 L11.34 600.94 L11.34 606.61
						 L0 595.28 Z" class="st5"/>
		</g>
		<g id="shape13-52" v:mID="13" v:groupContext="shape" transform="translate(1062.99,264.39) rotate(90)">
			<title>普通箭头.13</title>
			<v:userDefs>
				<v:ud v:nameU="visVersion" v:val="VT0(15):26"/>
				<v:ud v:nameU="ArrowType" v:prompt="" v:val="VT0(2):26"/>
			</v:userDefs>
			<g id="shadow13-53" v:groupContext="shadow" v:shadowOffsetX="0.345598" v:shadowOffsetY="-1.97279" v:shadowType="1"
					transform="matrix(1,0,0,1,1.97279,-0.345598)" class="st3">
				<path d="M0 595.28 L11.34 583.94 L11.34 589.61 L47.42 589.61 L47.42 595.28 L47.42 600.94 L11.34 600.94 L11.34 606.61
							 L0 595.28 Z" class="st4"/>
			</g>
			<path d="M0 595.28 L11.34 583.94 L11.34 589.61 L47.42 589.61 L47.42 595.28 L47.42 600.94 L11.34 600.94 L11.34 606.61
						 L0 595.28 Z" class="st5"/>
		</g>
		<g id="shape14-57" v:mID="14" v:groupContext="shape" transform="translate(1133.86,311.811) rotate(90) scale(-1,1)">
			<title>普通箭头.14</title>
			<v:userDefs>
				<v:ud v:nameU="visVersion" v:val="VT0(15):26"/>
				<v:ud v:nameU="ArrowType" v:prompt="" v:val="VT0(2):26"/>
			</v:userDefs>
			<g id="shadow14-58" v:groupContext="shadow" v:shadowOffsetX="0.345598" v:shadowOffsetY="-1.97279" v:shadowType="1"
					transform="matrix(1,0,0,1,-1.97279,-0.345598)" class="st3">
				<path d="M0 595.28 L11.34 583.94 L11.34 589.61 L47.42 589.61 L47.42 595.28 L47.42 600.94 L11.34 600.94 L11.34 606.61
							 L0 595.28 Z" class="st4"/>
			</g>
			<path d="M0 595.28 L11.34 583.94 L11.34 589.61 L47.42 589.61 L47.42 595.28 L47.42 600.94 L11.34 600.94 L11.34 606.61
						 L0 595.28 Z" class="st5"/>
		</g>
	</g>
</svg>
