<?xml version="1.0" encoding="UTF-8" standalone="no"?>
<!DOCTYPE svg PUBLIC "-//W3C//DTD SVG 1.1//EN" "http://www.w3.org/Graphics/SVG/1.1/DTD/svg11.dtd">
<!-- 由 Microsoft Visio, SVG Export 生成 计算机内存模型.svg Page-1 -->
<svg xmlns="http://www.w3.org/2000/svg" xmlns:xlink="http://www.w3.org/1999/xlink" xmlns:ev="http://www.w3.org/2001/xml-events"
		xmlns:v="http://schemas.microsoft.com/visio/2003/SVGExtensions/" width="11.6929in" height="8.26772in"
		viewBox="0 0 841.89 595.276" xml:space="preserve" color-interpolation-filters="sRGB" class="st10">
	<v:documentProperties v:langID="2052" v:metric="true" v:viewMarkup="false">
		<v:userDefs>
			<v:ud v:nameU="msvSubprocessMaster" v:prompt="" v:val="VT4(Rectangle)"/>
			<v:ud v:nameU="msvNoAutoConnect" v:val="VT0(1):26"/>
		</v:userDefs>
	</v:documentProperties>

	<style type="text/css">
	<![CDATA[
		.st1 {fill:url(#grad0-4);stroke:#4f87bb;stroke-width:0.5}
		.st2 {fill:#4f87bb;font-family:Calibri;font-size:0.833336em}
		.st3 {font-family:黑体;font-size:1em}
		.st4 {fill:url(#grad0-4);stroke:#4f87bb;stroke-width:0.75}
		.st5 {fill:#4f87bb;font-family:黑体;font-size:0.833336em}
		.st6 {visibility:visible}
		.st7 {fill:#5b9bd5;fill-opacity:0.25;filter:url(#filter_2);stroke:#5b9bd5;stroke-opacity:0.25}
		.st8 {fill:#4f87bb;stroke:#40709c;stroke-width:0.25}
		.st9 {fill:#4f87bb;stroke:#40709c;stroke-width:0.75}
		.st10 {fill:none;fill-rule:evenodd;font-size:12px;overflow:visible;stroke-linecap:square;stroke-miterlimit:3}
	]]>
	</style>

	<defs id="Patterns_And_Gradients">
		<linearGradient id="grad0-4" x1="0" y1="0" x2="1" y2="0" gradientTransform="rotate(60 0.5 0.5)">
			<stop offset="0" stop-color="#e9eff7" stop-opacity="1"/>
			<stop offset="0.24" stop-color="#f4f7fb" stop-opacity="1"/>
			<stop offset="0.54" stop-color="#feffff" stop-opacity="1"/>
		</linearGradient>
	</defs>
	<defs id="Filters">
		<filter id="filter_2">
			<feGaussianBlur stdDeviation="2"/>
		</filter>
	</defs>
	<g v:mID="0" v:index="1" v:groupContext="foregroundPage">
		<v:userDefs>
			<v:ud v:nameU="msvThemeOrder" v:val="VT0(0):26"/>
		</v:userDefs>
		<title>页-1</title>
		<v:pageProperties v:drawingScale="0.0393701" v:pageScale="0.0393701" v:drawingUnits="24" v:shadowOffsetX="8.50394"
				v:shadowOffsetY="-8.50394"/>
		<g id="shape1-1" v:mID="1" v:groupContext="shape" transform="translate(127.559,-467.717)">
			<title>矩形</title>
			<desc>CPU Core</desc>
			<v:userDefs>
				<v:ud v:nameU="visVersion" v:val="VT0(15):26"/>
			</v:userDefs>
			<v:textBlock v:margins="rect(4,4,4,4)" v:tabSpace="42.5197"/>
			<v:textRect cx="75.1181" cy="564.272" width="150.24" height="62.0079"/>
			<rect x="0" y="533.268" width="150.236" height="62.0079" class="st1"/>
			<text x="56" y="567.27" class="st2" v:langID="2052"><v:paragraph v:horizAlign="1"/><v:tabList/>CPU Core</text>		</g>
		<g id="shape2-6" v:mID="2" v:groupContext="shape" transform="translate(127.559,-439.37)">
			<title>矩形.2</title>
			<desc>CPU寄存器</desc>
			<v:userDefs>
				<v:ud v:nameU="visVersion" v:val="VT0(15):26"/>
			</v:userDefs>
			<v:textBlock v:margins="rect(4,4,4,4)" v:tabSpace="42.5197"/>
			<v:textRect cx="75.1181" cy="581.102" width="150.24" height="28.3465"/>
			<rect x="0" y="566.929" width="150.236" height="28.3465" class="st1"/>
			<text x="51.66" y="584.43" class="st2" v:langID="2052"><v:paragraph v:horizAlign="1"/><v:tabList/>CPU<tspan class="st3">寄存器</tspan></text>		</g>
		<g id="shape3-11" v:mID="3" v:groupContext="shape" transform="translate(127.559,-334.843)">
			<title>矩形.3</title>
			<desc>高速缓存</desc>
			<v:userDefs>
				<v:ud v:nameU="visVersion" v:val="VT0(15):26"/>
			</v:userDefs>
			<v:textBlock v:margins="rect(4,4,4,4)" v:tabSpace="42.5197"/>
			<v:textRect cx="75.1181" cy="564.272" width="150.24" height="62.0079"/>
			<rect x="0" y="533.268" width="150.236" height="62.0079" class="st4"/>
			<text x="55.12" y="567.6" class="st5" v:langID="2052"><v:paragraph v:horizAlign="1"/><v:tabList/>高速缓存</text>		</g>
		<g id="shape6-15" v:mID="6" v:groupContext="shape" transform="translate(797.953,334.134) rotate(90) scale(-1,1)">
			<title>燕尾形箭头</title>
			<v:userDefs>
				<v:ud v:nameU="visVersion" v:val="VT0(15):26"/>
				<v:ud v:nameU="ArrowType" v:prompt="" v:val="VT0(2):26"/>
			</v:userDefs>
			<g id="shadow6-16" v:groupContext="shadow" v:shadowOffsetX="0.345598" v:shadowOffsetY="-1.97279" v:shadowType="1"
					transform="matrix(1,0,0,1,-1.97279,-0.345598)" class="st6">
				<path d="M0 595.28 L11.34 583.94 L11.34 589.61 L73.7 589.61 L68.03 595.28 L73.7 600.94 L11.34 600.94 L11.34 606.61
							 L0 595.28 Z" class="st7"/>
			</g>
			<path d="M0 595.28 L11.34 583.94 L11.34 589.61 L73.7 589.61 L68.03 595.28 L73.7 600.94 L11.34 600.94 L11.34 606.61 L0
						 595.28 Z" class="st8"/>
		</g>
		<g id="shape9-20" v:mID="9" v:groupContext="shape" transform="translate(127.559,-223.228)">
			<title>矩形.9</title>
			<desc>BUS总线</desc>
			<v:userDefs>
				<v:ud v:nameU="visVersion" v:val="VT0(15):26"/>
			</v:userDefs>
			<v:textBlock v:margins="rect(4,4,4,4)" v:tabSpace="42.5197"/>
			<v:textRect cx="294.803" cy="581.102" width="589.61" height="28.3465"/>
			<rect x="0" y="566.929" width="589.606" height="28.3465" class="st4"/>
			<text x="276.58" y="584.43" class="st2" v:langID="2052"><v:paragraph v:horizAlign="1"/><v:tabList/>BUS<tspan
						class="st3">总线</tspan></text>		</g>
		<g id="shape10-25" v:mID="10" v:groupContext="shape" transform="translate(-392.598,198.425) rotate(-90)">
			<title>普通箭头</title>
			<v:userDefs>
				<v:ud v:nameU="visVersion" v:val="VT0(15):26"/>
				<v:ud v:nameU="ArrowType" v:prompt="" v:val="VT0(2):26"/>
			</v:userDefs>
			<g id="shadow10-26" v:groupContext="shadow" v:shadowOffsetX="0.345598" v:shadowOffsetY="-1.97279" v:shadowType="1"
					transform="matrix(1,0,0,1,-1.97279,0.345598)" class="st6">
				<path d="M0 595.28 L19.54 583.94 L19.54 589.61 L42.52 589.61 L42.52 595.28 L42.52 600.94 L19.54 600.94 L19.54 606.61
							 L0 595.28 Z" class="st7"/>
			</g>
			<path d="M0 595.28 L19.54 583.94 L19.54 589.61 L42.52 589.61 L42.52 595.28 L42.52 600.94 L19.54 600.94 L19.54 606.61
						 L0 595.28 Z" class="st9"/>
		</g>
		<g id="shape12-30" v:mID="12" v:groupContext="shape" transform="translate(510.236,-468.071)">
			<title>矩形.12</title>
			<desc>CPU Core</desc>
			<v:userDefs>
				<v:ud v:nameU="visVersion" v:val="VT0(15):26"/>
			</v:userDefs>
			<v:textBlock v:margins="rect(4,4,4,4)" v:tabSpace="42.5197"/>
			<v:textRect cx="75.1181" cy="564.272" width="150.24" height="62.0079"/>
			<rect x="0" y="533.268" width="150.236" height="62.0079" class="st1"/>
			<text x="56" y="567.27" class="st2" v:langID="2052"><v:paragraph v:horizAlign="1"/><v:tabList/>CPU Core</text>		</g>
		<g id="shape13-34" v:mID="13" v:groupContext="shape" transform="translate(510.236,-439.724)">
			<title>矩形.13</title>
			<desc>CPU寄存器</desc>
			<v:userDefs>
				<v:ud v:nameU="visVersion" v:val="VT0(15):26"/>
			</v:userDefs>
			<v:textBlock v:margins="rect(4,4,4,4)" v:tabSpace="42.5197"/>
			<v:textRect cx="75.1181" cy="581.102" width="150.24" height="28.3465"/>
			<rect x="0" y="566.929" width="150.236" height="28.3465" class="st1"/>
			<text x="51.66" y="584.43" class="st2" v:langID="2052"><v:paragraph v:horizAlign="1"/><v:tabList/>CPU<tspan class="st3">寄存器</tspan></text>		</g>
		<g id="shape14-39" v:mID="14" v:groupContext="shape" transform="translate(510.236,-335.197)">
			<title>矩形.14</title>
			<desc>高速缓存</desc>
			<v:userDefs>
				<v:ud v:nameU="visVersion" v:val="VT0(15):26"/>
			</v:userDefs>
			<v:textBlock v:margins="rect(4,4,4,4)" v:tabSpace="42.5197"/>
			<v:textRect cx="75.1181" cy="564.272" width="150.24" height="62.0079"/>
			<rect x="0" y="533.268" width="150.236" height="62.0079" class="st4"/>
			<text x="55.12" y="567.6" class="st5" v:langID="2052"><v:paragraph v:horizAlign="1"/><v:tabList/>高速缓存</text>		</g>
		<g id="shape15-43" v:mID="15" v:groupContext="shape" transform="translate(1180.63,333.78) rotate(90) scale(-1,1)">
			<title>燕尾形箭头.15</title>
			<v:userDefs>
				<v:ud v:nameU="visVersion" v:val="VT0(15):26"/>
				<v:ud v:nameU="ArrowType" v:prompt="" v:val="VT0(2):26"/>
			</v:userDefs>
			<g id="shadow15-44" v:groupContext="shadow" v:shadowOffsetX="0.345598" v:shadowOffsetY="-1.97279" v:shadowType="1"
					transform="matrix(1,0,0,1,-1.97279,-0.345598)" class="st6">
				<path d="M0 595.28 L11.34 583.94 L11.34 589.61 L73.7 589.61 L68.03 595.28 L73.7 600.94 L11.34 600.94 L11.34 606.61
							 L0 595.28 Z" class="st7"/>
			</g>
			<path d="M0 595.28 L11.34 583.94 L11.34 589.61 L73.7 589.61 L68.03 595.28 L73.7 600.94 L11.34 600.94 L11.34 606.61 L0
						 595.28 Z" class="st8"/>
		</g>
		<g id="shape16-48" v:mID="16" v:groupContext="shape" transform="translate(-9.92126,198.071) rotate(-90)">
			<title>普通箭头.16</title>
			<v:userDefs>
				<v:ud v:nameU="visVersion" v:val="VT0(15):26"/>
				<v:ud v:nameU="ArrowType" v:prompt="" v:val="VT0(2):26"/>
			</v:userDefs>
			<g id="shadow16-49" v:groupContext="shadow" v:shadowOffsetX="0.345598" v:shadowOffsetY="-1.97279" v:shadowType="1"
					transform="matrix(1,0,0,1,-1.97279,0.345598)" class="st6">
				<path d="M0 595.28 L19.54 583.94 L19.54 589.61 L42.52 589.61 L42.52 595.28 L42.52 600.94 L19.54 600.94 L19.54 606.61
							 L0 595.28 Z" class="st7"/>
			</g>
			<path d="M0 595.28 L19.54 583.94 L19.54 589.61 L42.52 589.61 L42.52 595.28 L42.52 600.94 L19.54 600.94 L19.54 606.61
						 L0 595.28 Z" class="st9"/>
		</g>
		<g id="shape18-53" v:mID="18" v:groupContext="shape" transform="translate(218.268,-148.819)">
			<title>矩形.18</title>
			<desc>RAM主存</desc>
			<v:userDefs>
				<v:ud v:nameU="visVersion" v:val="VT0(15):26"/>
			</v:userDefs>
			<v:textBlock v:margins="rect(4,4,4,4)" v:tabSpace="42.5197"/>
			<v:textRect cx="181.417" cy="574.606" width="362.84" height="41.3386"/>
			<rect x="0" y="553.937" width="362.835" height="41.3386" class="st4"/>
			<text x="161.53" y="577.93" class="st2" v:langID="2052"><v:paragraph v:horizAlign="1"/><v:tabList/>RAM<tspan
						class="st3">主存</tspan></text>		</g>
	</g>
</svg>
